<svg version="1.1" id="Icons" xmlns="http://www.w3.org/2000/svg" xmlns:xlink="http://www.w3.org/1999/xlink" x="0px" y="0px" viewBox="0 0 32 32" style="enable-background:new 0 0 32 32;" xml:space="preserve">
<style type="text/css">
	.st0{fill:none;stroke:#000000;stroke-width:2;stroke-linecap:round;stroke-linejoin:round;stroke-miterlimit:10;}
</style>
<g>
	<path d="M7,11.4V13c-0.6,0-1,0.4-1,1s0.4,1,1,1h2c0.6,0,1-0.4,1-1s-0.4-1-1-1v-1.6c0.5,0.4,1.2,0.6,1.8,0.6c0.8,0,1.6-0.3,2.2-0.9
		c0.6-0.6,0.9-1.4,0.9-2.2c0-0.8-0.3-1.6-0.9-2.2L8.7,2.3c-0.4-0.4-1-0.4-1.4,0L2.9,6.6C2.3,7.2,2,8,2,8.8c0,0.8,0.3,1.6,0.9,2.2
		C4,12.2,5.8,12.3,7,11.4z" id="id_101" style="fill: rgb(33, 200, 237);"></path>
	<path d="M23.3,13.7c0.2,0.2,0.5,0.3,0.7,0.3s0.6-0.1,0.7-0.3l4.4-4.9c1.2-1.3,1.2-3.5,0-4.8c-1.2-1.3-3.4-1.3-4.6,0L24,4.6L23.5,4
		c-1.2-1.3-3.4-1.3-4.6,0c-1.2,1.3-1.2,3.5,0,4.8L23.3,13.7z" id="id_102" style="fill: rgb(245, 133, 179);"></path>
	<path d="M27.5,20.1c0-0.1,0-0.3,0-0.4c0-1.9-1.6-3.5-3.5-3.5s-3.5,1.6-3.5,3.5c0,0.1,0,0.3,0,0.4c-1.5,0.4-2.5,1.8-2.5,3.4
		c0,1.9,1.6,3.5,3.5,3.5c0.5,0,1-0.1,1.5-0.4V28c-0.6,0-1,0.4-1,1s0.4,1,1,1h2c0.6,0,1-0.4,1-1s-0.4-1-1-1v-1.4
		c0.5,0.2,1,0.4,1.5,0.4c1.9,0,3.5-1.6,3.5-3.5C30,21.9,28.9,20.6,27.5,20.1z" id="id_103" style="fill: rgb(80, 230, 115);"></path>
	<path d="M8.7,17.3c-0.4-0.4-1.1-0.4-1.5,0l-5,5.5c-0.3,0.4-0.3,1,0,1.3l5,5.5C7.4,29.9,7.7,30,8,30s0.6-0.1,0.7-0.3l5-5.5
		c0.3-0.4,0.3-1,0-1.3L8.7,17.3z" id="id_104" style="fill: rgb(106, 108, 217);"></path>
</g>
</svg>